<svg width="32" height="32" viewBox="0 0 32 32" fill="none" xmlns="http://www.w3.org/2000/svg">
<path d="M11.9961 18.7199L5.90045 26.9033L2.70825 18.7355L8.53069 18.3804L11.9961 18.7199ZM19.9414 18.7199L26.0995 26.9501L29.2292 18.7433L23.4692 18.3804L19.9414 18.7199V18.7199Z" fill="#FBBF93"/>
<path d="M11.9961 13.2566L5.90045 5.0498L2.70825 13.2644L8.58142 13.6157L11.9961 13.2566ZM19.9414 13.2566L26.0995 5.0498L29.2917 13.2644L23.4692 13.6196L19.9414 13.2566V13.2566Z" fill="#6B3A19"/>
<path d="M19.9414 13.2566L26.0995 12.8V5.0498L19.9414 6.642V13.2566Z" fill="#9D5025"/>
<path d="M29.2916 13.2644L26.0994 12.8V5.0498L29.2916 6.6459V13.2644Z" fill="#F58536"/>
<path d="M19.9414 18.72L26.0995 19.2V26.9502L19.9414 25.3346V18.72Z" fill="#9D5025"/>
<path d="M29.2294 18.7435L26.0997 19.2001V26.9503L29.2294 25.3854V18.7435ZM11.9962 13.2566L5.90063 12.8V5.0498L11.9962 6.642V13.2566Z" fill="#F58536"/>
<path d="M2.70825 13.2644L5.90045 12.8V5.0498L2.70825 6.6459V13.2644V13.2644Z" fill="#9D5025"/>
<path d="M11.9962 18.72L5.90063 19.2V26.9502L11.9962 25.3346V18.72Z" fill="#F58536"/>
<path d="M2.70825 18.7356L5.90045 19.2V26.9502L2.70825 25.3541V18.7356V18.7356Z" fill="#9D5025"/>
<path d="M22.3455 19.7426L16.0001 19.1143L9.59229 19.7347L16.0001 32.0001L22.3455 19.7426Z" fill="#FBBF93"/>
<path d="M22.3455 12.2576L16.0001 12.8859L9.59229 12.2654L16.0001 0L22.3455 12.2576Z" fill="#6B3A19"/>
<path d="M22.3454 12.2576L16 11.3366V0L22.3454 3.17268V12.2576V12.2576Z" fill="#F58536"/>
<path d="M9.59229 12.2654L16.0001 11.3366V0L9.59229 3.2039V12.2654Z" fill="#9D5025"/>
<path d="M22.3454 19.7424L16 20.6634V32L22.3454 28.8273V19.7424Z" fill="#F58536"/>
<path d="M9.59229 19.7346L16.0001 20.6634V32L9.59229 28.7961V19.7346Z" fill="#9D5025"/>
</svg>
