<svg width="32" height="32" viewBox="0 0 32 32" fill="none" xmlns="http://www.w3.org/2000/svg">
<g clip-path="url(#clip0_3468_278)">
<path d="M28.9123 24.9377C28.4283 26.0557 27.8555 27.0848 27.1918 28.031C26.2872 29.3208 25.5464 30.2136 24.9756 30.7094C24.0907 31.5232 23.1426 31.94 22.1273 31.9637C21.3984 31.9637 20.5194 31.7563 19.4963 31.3355C18.4697 30.9168 17.5263 30.7094 16.6638 30.7094C15.7591 30.7094 14.7888 30.9168 13.7511 31.3355C12.7117 31.7563 11.8744 31.9755 11.2342 31.9973C10.2606 32.0387 9.29015 31.6101 8.32149 30.7094C7.70324 30.1701 6.92993 29.2457 6.00353 27.9361C5.00959 26.5377 4.19243 24.916 3.55225 23.0672C2.86664 21.0702 2.52295 19.1364 2.52295 17.2643C2.52295 15.1197 2.98634 13.2701 3.91451 11.7201C4.64397 10.4751 5.61441 9.49305 6.82899 8.77208C8.04357 8.05112 9.35593 7.68372 10.7692 7.66022C11.5425 7.66022 12.5566 7.89942 13.8168 8.36953C15.0735 8.84122 15.8804 9.08042 16.2341 9.08042C16.4986 9.08042 17.395 8.80072 18.9145 8.24311C20.3515 7.72599 21.5643 7.51187 22.5579 7.59622C25.2502 7.81349 27.2728 8.8748 28.618 10.7868C26.2101 12.2458 25.0191 14.2892 25.0428 16.9105C25.0645 18.9523 25.8052 20.6514 27.261 22.0005C27.9207 22.6267 28.6575 23.1106 29.4772 23.4543C29.2994 23.9698 29.1118 24.4637 28.9123 24.9377ZM22.7376 0.640182C22.7376 2.24055 22.153 3.7348 20.9876 5.11787C19.5812 6.76207 17.8801 7.71216 16.0354 7.56224C16.0119 7.37025 15.9983 7.16818 15.9983 6.95584C15.9983 5.41949 16.6671 3.7753 17.8548 2.43094C18.4478 1.75027 19.2019 1.1843 20.1165 0.73282C21.0291 0.288073 21.8922 0.0421187 22.7041 0C22.7278 0.213944 22.7376 0.427901 22.7376 0.640162V0.640182Z" fill="#B3B3B3"/>
</g>
<defs>
<clipPath id="clip0_3468_278">
<rect width="26.9542" height="32" fill="white" transform="translate(2.52295)"/>
</clipPath>
</defs>
</svg>
