<svg width="32" height="32" viewBox="0 0 32 32" fill="none" xmlns="http://www.w3.org/2000/svg">
<g clip-path="url(#clip0_3889_287)">
<path d="M8.00391 -0.00390625C3.58594 -0.00390625 0.00390625 3.57813 0.00390625 7.99609V23.9961C0.00390625 28.4141 3.58594 31.9961 8.00391 31.9961H24.0039C28.4219 31.9961 32.0039 28.4141 32.0039 23.9961V7.99609C32.0039 3.57813 28.4219 -0.00390625 24.0039 -0.00390625H8.00391Z" fill="#F44336"/>
<mask id="mask0_3889_287" style="mask-type:luminance" maskUnits="userSpaceOnUse" x="8" y="14" width="9" height="11">
<path d="M8.98608 14.708H16.5834V24.4167H8.98608V14.708Z" fill="white"/>
</mask>
<g mask="url(#mask0_3889_287)">
<mask id="mask1_3889_287" style="mask-type:luminance" maskUnits="userSpaceOnUse" x="8" y="14" width="9" height="11">
<path d="M12.824 24.4259L16.662 14.708H8.98608L12.824 24.4259Z" fill="white"/>
</mask>
<g mask="url(#mask1_3889_287)">
<path d="M8.98608 14.708H16.5704V24.3993H8.98608V14.708Z" fill="#F9AD48"/>
</g>
</g>
<mask id="mask2_3889_287" style="mask-type:luminance" maskUnits="userSpaceOnUse" x="10" y="18" width="3" height="7">
<path d="M10.927 18.2186H12.6557V24.426H10.927V18.2186Z" fill="white"/>
</mask>
<g mask="url(#mask2_3889_287)">
<path d="M10.927 18.2186H12.7445V24.4794H10.927V18.2186Z" fill="#F9AD48"/>
</g>
<mask id="mask3_3889_287" style="mask-type:luminance" maskUnits="userSpaceOnUse" x="7" y="1" width="11" height="14">
<path d="M7.33789 1.89905H17.9829V14.774H7.33789V1.89905Z" fill="white"/>
</mask>
<g mask="url(#mask3_3889_287)">
<path fill-rule="evenodd" clip-rule="evenodd" d="M8.8052 14.8043C8.8052 14.8043 7.4188 13.6733 8.13609 12.546C6.59849 10.8044 7.62665 8.60197 8.8052 8.03833C8.47235 6.60425 9.2899 5.12622 11.2627 4.65747C11.2627 4.65747 13.3028 3.70597 12.4793 2.05851C12.459 2.01668 12.4686 1.9659 12.5031 1.93449C12.5378 1.90291 12.5892 1.89787 12.6293 1.92212C14.4421 3.01164 14.0303 4.65747 14.0303 4.65747C16.0026 5.12622 17.3073 7.26994 16.4875 8.90926C17.6664 9.47257 18.7969 11.5728 17.2593 13.3144C17.9766 14.4417 16.4875 14.8043 16.4875 14.8043" fill="#FDFDFE"/>
</g>
<mask id="mask4_3889_287" style="mask-type:luminance" maskUnits="userSpaceOnUse" x="10" y="4" width="5" height="1">
<path d="M10.375 4.16663H14.5833V4.79163H10.375V4.16663Z" fill="white"/>
</mask>
<g mask="url(#mask4_3889_287)">
<mask id="mask5_3889_287" style="mask-type:luminance" maskUnits="userSpaceOnUse" x="7" y="1" width="12" height="14">
<path fill-rule="evenodd" clip-rule="evenodd" d="M8.8052 14.8043C8.8052 14.8043 7.4188 13.6733 8.13609 12.546C6.59849 10.8044 7.62665 8.60197 8.8052 8.03833C8.47235 6.60425 9.29006 5.12622 11.2627 4.65747C11.2627 4.65747 13.3028 3.70597 12.4793 2.05851C12.459 2.01668 12.4686 1.9659 12.5031 1.93449C12.5378 1.90291 12.5892 1.89787 12.6293 1.92212C14.4421 3.01164 14.0303 4.65747 14.0303 4.65747C16.0026 5.12622 17.3073 7.26994 16.4875 8.90926C17.6664 9.47257 18.7969 11.5728 17.2593 13.3144C17.9766 14.4417 16.4875 14.8043 16.4875 14.8043" fill="white"/>
</mask>
<g mask="url(#mask5_3889_287)">
<path fill-rule="evenodd" clip-rule="evenodd" d="M14.0304 4.65744C14.0304 4.65744 12.8066 4.40777 11.2628 4.65744C9.7187 4.90728 10.7154 4.21571 10.7154 4.21571C10.7154 4.21571 13.1782 4.00445 14.5621 4.65744C14.4467 4.88807 14.0304 4.65744 14.0304 4.65744Z" fill="#F0F1F4"/>
</g>
</g>
<mask id="mask6_3889_287" style="mask-type:luminance" maskUnits="userSpaceOnUse" x="7" y="12" width="11" height="2">
<path d="M7.95825 12.5416H17.7083V13.75H7.95825V12.5416Z" fill="white"/>
</mask>
<g mask="url(#mask6_3889_287)">
<mask id="mask7_3889_287" style="mask-type:luminance" maskUnits="userSpaceOnUse" x="7" y="1" width="12" height="14">
<path fill-rule="evenodd" clip-rule="evenodd" d="M8.8052 14.8043C8.8052 14.8043 7.4188 13.6733 8.13609 12.546C6.59849 10.8044 7.62665 8.60197 8.8052 8.03833C8.47235 6.60425 9.29006 5.12622 11.2627 4.65747C11.2627 4.65747 13.3028 3.70597 12.4793 2.05851C12.459 2.01668 12.4686 1.9659 12.5031 1.93449C12.5378 1.90291 12.5892 1.89787 12.6293 1.92212C14.4421 3.01164 14.0303 4.65747 14.0303 4.65747C16.0026 5.12622 17.3073 7.26994 16.4875 8.90926C17.6664 9.47257 18.7969 11.5728 17.2593 13.3144C17.9766 14.4417 16.4875 14.8043 16.4875 14.8043" fill="white"/>
</mask>
<g mask="url(#mask7_3889_287)">
<path fill-rule="evenodd" clip-rule="evenodd" d="M7.97144 12.9156C7.97144 12.9156 9.48136 13.2311 11.8611 13.3144C14.7125 13.4143 17.669 13.7244 17.669 13.7244L17.2592 13.3144C17.2592 13.3144 15.3456 13.0755 11.8611 12.9156C8.37931 12.7555 8.13599 12.546 8.13599 12.546L7.97144 12.9156Z" fill="#F0F1F4"/>
</g>
</g>
<mask id="mask8_3889_287" style="mask-type:luminance" maskUnits="userSpaceOnUse" x="8" y="8" width="10" height="2">
<path d="M8 8H17.2917V9.54167H8V8Z" fill="white"/>
</mask>
<g mask="url(#mask8_3889_287)">
<mask id="mask9_3889_287" style="mask-type:luminance" maskUnits="userSpaceOnUse" x="7" y="1" width="12" height="14">
<path fill-rule="evenodd" clip-rule="evenodd" d="M8.8052 14.8044C8.8052 14.8044 7.4188 13.6734 8.13609 12.5461C6.59849 10.8046 7.62665 8.60209 8.8052 8.03845C8.47235 6.60437 9.29006 5.12634 11.2627 4.65759C11.2627 4.65759 13.3028 3.70609 12.4793 2.05863C12.459 2.0168 12.4686 1.96602 12.5031 1.93461C12.5378 1.90303 12.5892 1.89799 12.6293 1.92224C14.4421 3.01176 14.0303 4.65759 14.0303 4.65759C16.0026 5.12634 17.3073 7.27006 16.4875 8.90938C17.6664 9.4727 18.7969 11.573 17.2593 13.3145C17.9766 14.4418 16.4875 14.8044 16.4875 14.8044" fill="white"/>
</mask>
<g mask="url(#mask9_3889_287)">
<path fill-rule="evenodd" clip-rule="evenodd" d="M8.80509 8.03845C8.80509 8.03845 14.3505 8.2017 16.4874 8.90938C17.0097 8.77153 17.2615 9.51908 17.2615 9.51908C14.064 8.71082 11.2945 8.53569 8.20825 8.47872L8.01489 8.03845H8.80509Z" fill="#F0F1F4"/>
</g>
</g>
<path d="M18.0981 16.8668H19.5322C20.4258 16.8668 21.1323 16.2224 21.1323 15.4327C21.1323 14.8093 20.7375 14.456 20.0101 14.4351H17.932L17.5371 14.456C16.6851 14.4768 16.4564 14.5806 16.103 15.1833L15.8537 15.6199L10.9284 23.995V19.9841C10.9284 18.0514 10.8244 17.0538 10.5542 16.2641C10.1593 15.1418 8.74626 14.2898 7.24984 14.2898C4.21566 14.2898 1.59717 16.8875 1.59717 19.901C1.59717 22.0208 3.23893 23.6833 5.29639 23.6833C6.79264 23.6833 7.85254 23.0183 7.85254 22.0623C7.85254 21.5427 7.33301 21.0647 6.77181 21.0855L5.89909 21.1064C5.0262 21.127 4.34033 20.462 4.34033 19.6308C4.34033 18.1969 5.60807 16.8251 6.93815 16.8251C7.45768 16.8251 7.91488 17.1785 8.10189 17.7397C8.2474 18.1345 8.26823 18.4254 8.30973 19.9841L8.47607 26.8214C8.49675 27.4864 8.55908 27.7774 8.74626 28.0891C8.97477 28.4631 9.4943 28.7333 10.0138 28.7333C10.7829 28.7333 11.2609 28.3801 11.8428 27.3826L18.0981 16.8668Z" fill="white"/>
<path d="M13.5742 26.3866C13.5742 26.0207 13.6432 25.6997 13.7813 25.4237C13.9196 25.1473 14.1077 24.9346 14.3457 24.7857C14.584 24.6369 14.8498 24.5624 15.1432 24.5624C15.394 24.5624 15.6141 24.6135 15.8034 24.7154C15.9925 24.8174 16.1382 24.9514 16.2402 25.1171V24.6132H17.3314V28.1724H16.2402V27.6685C16.1343 27.8344 15.9867 27.9683 15.7975 28.0702C15.6082 28.1722 15.3882 28.2232 15.1374 28.2232C14.8478 28.2232 14.584 28.148 14.3457 27.9973C14.1077 27.8462 13.9196 27.6314 13.7813 27.3527C13.6432 27.0741 13.5742 26.7522 13.5742 26.3866ZM16.2402 26.3931C16.2402 26.121 16.1647 25.9065 16.0137 25.7492C15.863 25.5917 15.6792 25.5129 15.4622 25.5129C15.2456 25.5129 15.0618 25.5907 14.9108 25.746C14.7598 25.9009 14.6842 26.1145 14.6842 26.3866C14.6842 26.6587 14.7598 26.8747 14.9108 27.0344C15.0618 27.1937 15.2456 27.2733 15.4622 27.2733C15.6792 27.2733 15.863 27.1949 16.0137 27.0376C16.1647 26.8801 16.2402 26.6652 16.2402 26.3931Z" fill="white"/>
<path d="M20.2907 24.5747C20.7074 24.5747 21.04 24.71 21.2887 24.9803C21.5378 25.2503 21.6624 25.6213 21.6624 26.0929V28.1724H20.5778V26.2401C20.5778 26.0018 20.5161 25.8167 20.3929 25.6847C20.2695 25.5529 20.1038 25.4868 19.8955 25.4868C19.6872 25.4868 19.5213 25.5529 19.3981 25.6847C19.2747 25.8167 19.2132 26.0018 19.2132 26.2401V28.1724H18.1221V24.6131H19.2132V25.0851C19.3234 24.9281 19.472 24.8037 19.6592 24.7121C19.8467 24.6206 20.0571 24.5747 20.2907 24.5747Z" fill="white"/>
<path d="M25.2277 23.6952V26.7434C25.2277 27.2157 25.0946 27.5793 24.8286 27.8345C24.563 28.0897 24.2049 28.2173 23.7544 28.2173C23.2826 28.2173 22.9041 28.0835 22.619 27.8156C22.3341 27.5474 22.1919 27.1669 22.1919 26.6737H23.2759C23.2759 26.8609 23.314 27.0023 23.3905 27.0982C23.4673 27.1937 23.578 27.2414 23.7225 27.2414C23.8543 27.2414 23.9564 27.1989 24.0285 27.1138C24.1009 27.0288 24.1372 26.9053 24.1372 26.7434V23.6952H25.2277Z" fill="white"/>
<path d="M27.7283 28.2173C27.4005 28.2173 27.1069 28.1642 26.8474 28.0578C26.5883 27.9515 26.3809 27.7941 26.2257 27.5858C26.0707 27.3774 25.9889 27.1266 25.9802 26.8332H27.1417C27.1586 26.999 27.2159 27.1255 27.3136 27.2127C27.4112 27.2996 27.5388 27.3429 27.6964 27.3429C27.8578 27.3429 27.9851 27.3058 28.0785 27.2316C28.1723 27.1571 28.2192 27.0539 28.2192 26.9224C28.2192 26.8117 28.1817 26.7204 28.1072 26.6483C28.033 26.5758 27.9415 26.5161 27.8331 26.4692C27.725 26.4224 27.5709 26.3693 27.3708 26.3097C27.0818 26.2209 26.8456 26.1317 26.6625 26.0422C26.4797 25.9528 26.3223 25.8211 26.1905 25.647C26.059 25.4725 25.9932 25.245 25.9932 24.964C25.9932 24.5474 26.144 24.2212 26.4457 23.9855C26.7478 23.7495 27.1412 23.6313 27.6261 23.6313C28.1195 23.6313 28.517 23.7495 28.8188 23.9855C29.1208 24.2212 29.2825 24.5496 29.3038 24.9705H28.1235C28.1152 24.826 28.0619 24.7124 27.9639 24.6294C27.8663 24.5465 27.7408 24.505 27.5876 24.505C27.4561 24.505 27.3497 24.5402 27.2686 24.6105C27.1879 24.6805 27.1475 24.7814 27.1475 24.9132C27.1475 25.0578 27.2154 25.1704 27.3513 25.2511C27.4875 25.3319 27.7004 25.4191 27.99 25.5129C28.2791 25.6105 28.5138 25.7041 28.6944 25.7935C28.8749 25.8825 29.0312 26.012 29.1632 26.1821C29.295 26.3524 29.3611 26.5713 29.3611 26.839C29.3611 27.0942 29.2961 27.326 29.1664 27.5343C29.0365 27.7427 28.8484 27.9087 28.602 28.0324C28.3554 28.1558 28.0642 28.2173 27.7283 28.2173Z" fill="white"/>
</g>
<defs>
<clipPath id="clip0_3889_287">
<rect width="32" height="32" fill="white"/>
</clipPath>
</defs>
</svg>
