<svg width="32" height="32" viewBox="0 0 32 32" fill="none" xmlns="http://www.w3.org/2000/svg">
<path fill-rule="evenodd" clip-rule="evenodd" d="M26.2081 11.5837C29.4069 11.5837 32 8.9906 32 5.79185C32 2.5931 29.4069 0 26.2081 0C23.0094 0 20.4163 2.5931 20.4163 5.79185C20.4163 8.9906 23.0094 11.5837 26.2081 11.5837ZM14.914 1.01357H14.8679C12.4741 1.01357 10.6154 1.01357 9.12537 1.13531C7.61398 1.25879 6.39294 1.51256 5.29703 2.07096C3.47161 3.00106 1.98749 4.48518 1.05738 6.3106C0.498991 7.40651 0.245215 8.62755 0.121731 10.1389C-8.41088e-06 11.6289 -4.17822e-06 13.4877 4.98332e-08 15.8815V15.9276V17.086V17.132C-4.17822e-06 19.5259 -8.41088e-06 21.3846 0.121731 22.8746C0.245215 24.386 0.498991 25.6071 1.05738 26.703C1.98749 28.5283 3.47161 30.0125 5.29703 30.9426C6.39294 31.501 7.61398 31.7548 9.12537 31.8782C10.6154 32 12.4741 32 14.8679 32H14.914H16.0724H16.1185C18.5123 32 20.3711 32 21.861 31.8782C23.3724 31.7548 24.5935 31.501 25.6894 30.9426C27.5148 30.0125 28.9989 28.5283 29.929 26.703C30.4874 25.6071 30.7412 24.386 30.8647 22.8746C30.9864 21.3846 30.9864 19.5259 30.9864 17.1321V17.086V16.5067C30.9864 15.947 30.5326 15.4932 29.9728 15.4932C29.4131 15.4932 28.9593 15.947 28.9593 16.5067V17.086C28.9593 19.5355 28.9584 21.3117 28.8443 22.7095C28.731 24.0956 28.5113 25.0201 28.1229 25.7827C27.3871 27.2266 26.2131 28.4007 24.7691 29.1363C24.0065 29.5249 23.082 29.7445 21.6959 29.8579C20.2981 29.972 18.5219 29.9729 16.0724 29.9729H14.914C12.4645 29.9729 10.6883 29.972 9.29044 29.8579C7.90441 29.7445 6.97984 29.5249 6.21733 29.1363C4.77334 28.4007 3.59934 27.2266 2.86358 25.7827C2.47507 25.0201 2.25539 24.0956 2.14215 22.7095C2.02794 21.3117 2.02715 19.5355 2.02715 17.086V15.9276C2.02715 13.4781 2.02794 11.7019 2.14215 10.304C2.25539 8.91798 2.47507 7.99341 2.86358 7.23091C3.59934 5.78691 4.77334 4.61291 6.21733 3.87715C6.97984 3.48864 7.90441 3.26896 9.29044 3.15572C10.6883 3.04151 12.4645 3.04072 14.914 3.04072H15.4931C16.0529 3.04072 16.5068 2.58693 16.5068 2.02715C16.5068 1.46737 16.0529 1.01357 15.4931 1.01357H14.914Z" fill="black"/>
</svg>
